<svg width="280px" height="34px" viewBox="0 0 280 34" version="1.1" xmlns="http://www.w3.org/2000/svg" xmlns:xlink="http://www.w3.org/1999/xlink">
  <path d="M0.73,29.52 C0.73,31.1768542 2.07314575,32.52 3.73,32.52 C4.51494026,32.5368982 5.27017943,32.2199041 5.80791743,31.6478424 C6.34565544,31.0757807 6.61537252,30.3023958 6.55,29.52 L6.55,23.7 L13.9,23.7 C19.63,23.7 24.78,19.83 24.78,12.87 C24.78,5.52 19.63,1.68 13.9,1.68 L3.72,1.68 C2.06314575,1.68 0.72,3.02314575 0.72,4.68 L0.72,29.48 L0.73,29.52 Z M13.89,7.23 C16.9275661,7.23 19.39,9.69243388 19.39,12.73 C19.39,15.7675661 16.9275661,18.23 13.89,18.23 L6.54,18.23 L6.54,7.23 L13.89,7.23 Z M85.62,20.93 C85.62,30.13 70.62,29.61 70.62,20.93 L70.62,5 C70.6830963,3.9287551 70.1474339,2.91074823 69.2288009,2.35607698 C68.3101679,1.80140573 67.1598321,1.80140573 66.2411991,2.35607698 C65.3225661,2.91074823 64.7869037,3.9287551 64.85,5 L64.85,20.93 C64.85,37.4 91.41,37.4 91.41,20.93 L91.41,5 C91.4730963,3.9287551 90.9374339,2.91074823 90.0188009,2.35607698 C89.1001679,1.80140573 87.9498321,1.80140573 87.0311991,2.35607698 C86.1125661,2.91074823 85.5769037,3.9287551 85.64,5 L85.64,20.93 L85.62,20.93 Z M132.94,29.87 C132.931138,30.6001471 133.222819,31.3018316 133.746658,31.8105418 C134.270497,32.3192519 134.980426,32.5902501 135.71,32.56 L150.29,32.56 C154.69,32.56 154.61,26.79 150.29,26.79 L138.29,26.79 L138.29,4.72 C138.290646,3.27056419 137.13879,2.0832666 135.69,2.03982501 C134.188217,2.02319801 132.952794,3.21848059 132.92,4.72 L132.92,29.87 L132.94,29.87 Z M210.52,23.79 C209.86,30.05 200.52,28.2 196.95,25.73 C195.45,24.5 194.18,24.89 193.03,26.04 C192.104929,27.4274414 192.372059,29.2887317 193.65,30.36 C199.73,35.36 215.93,35.11 216.24,23.93 C216.55,12.21 197.39,16.35 198.58,9.13 C199.51,4.55 206.9,5.52 210.16,7.59 C212.81,9.52 215.98,5.69 212.98,3.27 C206.9,-1.4 193.98,0.14 192.98,8.69 C191.61,21.19 209.93,17.27 210.51,23.79 L210.52,23.79 Z M276,32.56 C277.071245,32.6230963 278.089252,32.0874339 278.643923,31.1688009 C279.198594,30.2501679 279.198594,29.0998321 278.643923,28.1811991 C278.089252,27.2625661 277.071245,26.7269037 276,26.79 L262.55,26.79 L262.55,20.18 L273.65,20.18 C274.721245,20.2430963 275.739252,19.7074339 276.293923,18.7888009 C276.848594,17.8701679 276.848594,16.7198321 276.293923,15.8011991 C275.739252,14.8825661 274.721245,14.3469037 273.65,14.41 L262.55,14.41 L262.55,7.81 L275.24,7.81 C276.303959,7.87288571 277.315144,7.34098928 277.866111,6.42863077 C278.417079,5.51627225 278.417079,4.37372775 277.866111,3.46136923 C277.315144,2.54901072 276.303959,2.01711429 275.24,2.08 L259.42,2.08 C258.691004,2.06342544 257.986946,2.34572394 257.471335,2.86133506 C256.955724,3.37694617 256.673425,4.08100416 256.69,4.81 L256.69,29.81 C256.679102,30.5373272 256.963225,31.2380634 257.477581,31.7524192 C257.991937,32.2667749 258.692673,32.5508981 259.42,32.54 L276,32.56 Z" id="Shape" fill="#222222"></path>
</svg>
