<svg width="141" height="145" viewBox="0 0 141 145"><g fill="none" fill-rule="evenodd"><path d="M8.76 71.7V38.92a5.22 5.22 0 013-5L69.25.72a6.39 6.39 0 011.56-.71l-7.84 62.91-4-6.19-2.08-3.34a1.35 1.35 0 00-1.82-.42 1.25 1.25 0 00-.58.8l-1.06 3.69-9.61 33.6-13-43.85a1.32 1.32 0 00-1.62-.88 1.3 1.3 0 00-.85.73l-11 24.65-8.59-.01z"/><path d="M135.61 77.23v29a5.28 5.28 0 01-2.52 4.1l-43.2 25 15.45-72.41 7.8 33.26a1.32 1.32 0 001.58 1 1.28 1.28 0 001-1l5-18.67 14.88-.31.01.03zm-124.62.41H2.04a1.42 1.42 0 000 2.76l.2.08 6.48 2.29v23.39a5.24 5.24 0 002.43 4l58.56 33.81a5.22 5.22 0 004.83 0l11.08-6.4L72.56 33.92l-5.12 42.52a1.29 1.29 0 01-.59.94 1.35 1.35 0 01-1.83-.39l-7.55-11.41-12.38 43.22a1.27 1.27 0 01-.93 1 1.32 1.32 0 01-1.63-.88l-14-47.43-6.36 14.39-.42.95a1.32 1.32 0 01-1.25.87h-9.51v-.06z" fill="#3F97F7"/><path d="M75.15.71l57.49 33.21a5.24 5.24 0 013 4.44v28.66l3.95 1.4.2.07a1.44 1.44 0 011.1 1.43 1.42 1.42 0 01-1.06 1.37h-5.59l-15.95.34h-1.34a1.33 1.33 0 00-1.26 1l-.33 1.26-.66 2.52-8.35-35.67a1.33 1.33 0 00-1.58-1c-.5.11-.89.5-1 1l-14.93 72.38L74.68.42c.16.09.31.18.47.29z"/></g></svg>