<?xml version="1.0" encoding="UTF-8"?>
<svg width="580px" height="145px" viewBox="0 0 580 145" version="1.1" xmlns="http://www.w3.org/2000/svg" xmlns:xlink="http://www.w3.org/1999/xlink">
    <!-- Generator: Sketch 63.1 (92452) - https://sketch.com -->
    <title>pulse-logo</title>
    <desc>Created with Sketch.</desc>
    <defs>
        <linearGradient x1="49.9995907%" y1="100.000477%" x2="49.9995907%" y2="0.000654742581%" id="linearGradient-1">
            <stop stop-color="#00BFFF" offset="0%"></stop>
            <stop stop-color="#005695" offset="100%"></stop>
        </linearGradient>
        <path d="M51.1193208,59.0124201 C50.9871022,59.9076527 50.4556355,60.7243562 49.6208439,61.168046 L49.6208439,61.168046 C48.2416229,61.8983674 46.5551883,61.3264132 45.8539115,59.8906381 L45.8539115,59.8906381 L42.3993778,52.8465706 L35.4306825,73.1345842 L35.42809,73.1345842 C35.1623566,73.9094054 34.5842245,74.5638153 33.7883207,74.877932 L33.7883207,74.877932 C32.3442867,75.451195 30.7239614,74.696006 30.1756433,73.1908634 L30.1756433,73.1908634 L21.2988528,49.0025673 L14.9782876,63.0475111 C14.5427442,64.0657728 13.5640677,64.775153 12.4259511,64.775153 L12.4259511,64.775153 L0,64.7398149 L0,103.101319 C0,125.257018 17.290816,143.702214 39.1250243,144.996636 L39.1250243,144.996636 C40.1970316,145.060769 41.0953399,144.199565 41.0992287,143.11848 L41.0992287,143.11848 L41.1044138,143.11848 L41.1044138,117.938099 L41.7136561,118.135731 C71.2969084,127.712364 103.549161,112.89129 115.582345,83.5606416 L115.582345,83.5606416 C118.108756,77.4013363 119.548901,71.0627227 120,64.7594472 L120,64.7594472 L100.859421,64.7594472 L98.1631992,72.2694544 C97.8676518,73.0900843 97.2234105,73.7628176 96.3562123,74.0350521 L96.3562123,74.0350521 C94.8823644,74.5023007 93.3229633,73.6345533 92.8744572,72.097999 L92.8744572,72.097999 L86.3620455,49.8703147 L73.8181347,111.695029 L73.8155422,111.695029 C73.5770303,112.876893 72.6450191,113.827096 71.4304232,113.986772 L71.4304232,113.986772 C69.9008361,114.187022 68.5034675,113.060128 68.311621,111.467294 L68.311621,111.467294 L58.0309806,27 L51.1193208,59.0124201 Z" id="path-2"></path>
    </defs>
    <g id="pulse-logo" stroke="none" stroke-width="1" fill="none" fill-rule="evenodd">
        <g id="icon" transform="translate(0.000000, -0.000500)">
            <mask id="mask-3" fill="white">
                <use xlink:href="#path-2"></use>
            </mask>
            <use id="icon-gradient" fill="url(#linearGradient-1)" xlink:href="#path-2"></use>
            <path d="M83.6268993,4.6012795 C106.398623,14.0658703 120.418922,35.9586324 121,59.2611259 L99.6359212,59.2611259 L99.6359212,59.2716072 C98.4959639,59.2716072 97.4212963,59.9948151 97.000831,61.1660975 L96.5007123,62.5470054 L89.2183048,37.8505025 C88.9702042,36.7932039 88.1540836,35.9232581 87.0546059,35.6861193 C85.5320513,35.3585795 84.0395299,36.3700224 83.723528,37.9461441 L72.2795584,94 L62.019943,10.2323442 C61.9233143,8.99555382 61.0627968,7.91336223 59.831434,7.62643734 C58.3141026,7.27400449 56.8072175,8.25924429 56.4677113,9.82881514 L47.6536087,50.3913474 L44.775641,44.5558978 C44.4622507,43.8929572 43.9085945,43.3505512 43.1851852,43.0832787 C41.7161681,42.5408728 40.1009022,43.332209 39.578585,44.8506837 L32.9281814,64.089063 L24.3425926,40.8415962 L24.3347578,40.8455266 C24.0853514,40.1629336 23.5878443,39.5772924 22.8983856,39.244512 C21.4907407,38.5632291 19.8167142,39.1921056 19.1585945,40.6476926 L10.7140313,59.2938799 L0,59.2637462 L0.0274216524,58.4619287 C1.21047009,25.8690956 27.9322175,0 60.4921652,0 C68.6768756,0 76.4907407,1.63638898 83.6268993,4.6012795" id="icon-white" fill="#E6E6E6"></path>
        </g>
        <g id="type" transform="translate(163.000000, 31.000000)" fill="#E6E6E6">
            <path d="M341.098506,40 C346.490718,40 346.106737,32.8062324 341.098506,32.8062324 L324.315412,32.8062324 L324.315412,24.5681021 L338.18157,24.5681021 C343.081034,24.5681021 343.081034,17.3743346 338.18157,17.3743346 L324.315412,17.3743346 L324.315412,9.13784895 L340.165746,9.13784895 C345.116297,9.13784895 345.225064,2 340.165746,2 L320.411332,2 C318.483188,2 317,3.42756979 317,5.40445791 L317,36.5955421 C317,38.5181562 318.483188,40 320.411332,40 L341.098506,40 Z" id="Path"></path>
            <path d="M260.008737,28.8885887 C259.200591,36.7061025 247.859181,34.3931603 243.453015,31.3103364 C241.624223,29.770573 240.064276,30.2634951 238.668534,31.6961015 C237.701013,33.1814621 237.647888,35.6048584 239.420335,37.090219 C246.836925,43.3646723 266.618791,43.0349585 266.995496,29.0534455 C267.372202,14.412505 243.989096,19.5873628 245.441183,10.5581508 C246.569689,4.83596813 255.600961,6.04601772 259.578906,8.63262235 C262.803441,11.0543701 266.675135,6.26692595 263.017551,3.23850485 C255.600961,-2.59578055 239.851775,-0.668603488 238.615409,10.0091774 C236.949212,25.6425565 259.308451,20.7430096 260.008737,28.8885887 L260.008737,28.8885887 Z" id="Path"></path>
            <path d="M164,36.6547388 C164,38.6287221 165.556514,40 167.49883,40 L185.876005,40 C191.430232,40 191.318815,32.8168028 185.876005,32.8168028 L170.773164,32.8168028 L170.773164,5.343619 C170.773164,3.53550283 169.274853,2 167.49883,2 C165.556514,2 164,3.53550283 164,5.343619 L164,36.6547388 Z" id="Path"></path>
            <path d="M104.830933,25.6336189 C104.830933,37.0830311 86.1707063,36.4267162 86.1707063,25.6336189 L86.1707063,5.80142566 C86.1707063,0.652635846 79,0.872501312 79,5.80142566 L79,25.6336189 C79,46.122127 112,46.122127 112,25.6336189 L112,5.80142566 C112,0.542703112 104.830933,0.926647286 104.830933,5.80142566 L104.830933,25.6336189 Z" id="Path"></path>
            <path d="M16.4267691,1 C23.5704882,1 30,5.84042553 30,15.1297103 C30,23.9207895 23.5704882,28.816201 16.4267691,28.816201 L16.4267691,28.816201 L7.25233132,28.816201 L7.25233132,36.1593181 C7.25233132,38.6086901 5.7136588,40 3.73560066,40 C1.92210642,40 2.55795385e-13,38.6086901 2.55795385e-13,36.1593181 L2.55795385e-13,36.1593181 L2.55795385e-13,4.8373494 C2.55795385e-13,3.00281979 1.4284147,1 3.73560066,1 L3.73560066,1 Z M16.4267691,8.00986926 L7.25233132,8.00986926 L7.25233132,21.8613176 L16.4267691,21.8613176 C20.1097093,21.8613176 23.0208448,18.5821584 23.0208448,15.1297103 C23.0208448,11.2357088 20.1097093,8.00986926 16.4267691,8.00986926 L16.4267691,8.00986926 Z" id="Combined-Shape"></path>
        </g>
    </g>
</svg>