<?xml version="1.0" encoding="UTF-8"?>
<svg width="93px" height="111px" viewBox="0 0 93 111" version="1.1" xmlns="http://www.w3.org/2000/svg" xmlns:xlink="http://www.w3.org/1999/xlink">
    <!-- Generator: Sketch 63.1 (92452) - https://sketch.com -->
    <title>pulse-logo-icon</title>
    <desc>Created with Sketch.</desc>
    <defs>
        <linearGradient x1="50.0054013%" y1="99.9975452%" x2="50.0054013%" y2="-0.0554863751%" id="linearGradient-1">
            <stop stop-color="#00C0FF" offset="0%"></stop>
            <stop stop-color="#005696" offset="100%"></stop>
        </linearGradient>
    </defs>
    <g id="pulse-logo-icon" stroke="none" stroke-width="1" fill="none" fill-rule="evenodd">
        <path d="M92.57,49.69 C91.541367,63.8694292 84.0623377,76.7924943 72.280368,84.7485918 C60.4983982,92.7046892 45.7168671,94.8136767 32.18,90.47 L31.71,90.32 L31.71,109.56 L31.71,109.56 C31.7078665,109.957096 31.542969,110.33594 31.2537997,110.6081 C30.9646305,110.880259 30.5764962,111.021915 30.18,111 C13.2621814,109.946628 0.0620518135,95.9504669 -7.10542736e-15,79 L-7.10542736e-15,49.68 L9.59,49.68 C10.4636127,49.6895056 11.2552831,49.1670032 11.59,48.36 L16.47,37.63 L23.32,56.11 C23.5112839,56.6567801 23.9160594,57.1026569 24.4418507,57.3457647 C24.9676421,57.5888725 25.5695278,57.6084412 26.11,57.4 C26.7049469,57.1632311 27.1657126,56.6768673 27.37,56.07 L27.37,56.07 L32.75,40.57 L35.37,46 C35.6157834,46.5254374 36.0643429,46.9285868 36.6129358,47.1171067 C37.1615288,47.3056266 37.7631507,47.2633643 38.28,47 C38.9031963,46.6614146 39.3323266,46.0510137 39.44,45.35 L44.77,20.89 L52.7,85.38 C52.7973662,86.4495288 53.6723645,87.2812413 54.745454,87.3242661 C55.8185434,87.3672909 56.7573199,86.6083006 56.94,85.55 L56.94,85.55 L66.61,38.31 L71.61,55.31 C71.7656441,55.8639151 72.1368127,56.3323342 72.6404814,56.6104796 C73.1441501,56.888625 73.7382894,56.9532864 74.29,56.79 C74.9418457,56.5832615 75.4597024,56.0838996 75.69,55.44 L75.69,55.44 L77.77,49.7 L92.57,49.69 Z" id="Path" fill="url(#linearGradient-1)"></path>
        <path d="M64.06,3.51 C81.0010253,10.5454437 92.2148467,26.8920765 92.68,45.23 L76.32,45.23 C75.4144838,45.2438758 74.6147475,45.8236846 74.32,46.68 L73.94,47.73 L68.34,28.89 C68.1516211,28.0656438 67.5054794,27.4233945 66.68,27.24 C66.1074787,27.1265091 65.5133973,27.2495423 65.0330411,27.5810823 C64.5526849,27.9126223 64.2269452,28.4244459 64.13,29 L55.37,71.75 L47.51,7.81 C47.4491603,6.8470626 46.7679829,6.03613716 45.83,5.81 C45.2644525,5.68626704 44.6729042,5.79583705 44.1891925,6.11391989 C43.7054807,6.43200273 43.3704857,6.93171602 43.26,7.5 L36.51,38.5 L34.3,34 C34.057718,33.4775824 33.619418,33.071616 33.08,32.87 C32.5352112,32.6766526 31.935514,32.7108357 31.4162242,32.9648361 C30.8969344,33.2188365 30.5018075,33.6712522 30.32,34.22 L25.23,48.92 L18.66,31.17 L18.66,31.17 C18.4505933,30.6540992 18.054173,30.2362507 17.55,30 C17.0391071,29.7471021 16.4478925,29.7106118 15.9097776,29.8987639 C15.3716626,30.0869159 14.9319965,30.4838541 14.69,31 L8.22,45.26 L0,45.23 L0,44.62 C0.576661408,29.4719168 8.52123292,15.5621344 21.2756818,7.36939391 C34.0301306,-0.823346602 49.9838568,-2.26448636 64,3.51 L64.06,3.51 Z" id="Path" fill="#222222"></path>
    </g>
</svg>