<?xml version="1.0" encoding="UTF-8"?>
<svg viewBox="0 0 121 145" version="1.1" xmlns="http://www.w3.org/2000/svg" xmlns:xlink="http://www.w3.org/1999/xlink">
    <!-- Generator: Sketch 63.1 (92452) - https://sketch.com -->
    <title>pulse-icon</title>
    <desc>Created with Sketch.</desc>
    <defs>
        <linearGradient x1="49.9995907%" y1="100.000477%" x2="49.9995907%" y2="0.000654742581%" id="linearGradient-1">
            <stop stop-color="#00BFFF" offset="0%"></stop>
            <stop stop-color="#005695" offset="100%"></stop>
        </linearGradient>
        <path d="M51.1193208,59.0124201 C50.9871022,59.9076527 50.4556355,60.7243562 49.6208439,61.168046 L49.6208439,61.168046 C48.2416229,61.8983674 46.5551883,61.3264132 45.8539115,59.8906381 L45.8539115,59.8906381 L42.3993778,52.8465706 L35.4306825,73.1345842 L35.42809,73.1345842 C35.1623566,73.9094054 34.5842245,74.5638153 33.7883207,74.877932 L33.7883207,74.877932 C32.3442867,75.451195 30.7239614,74.696006 30.1756433,73.1908634 L30.1756433,73.1908634 L21.2988528,49.0025673 L14.9782876,63.0475111 C14.5427442,64.0657728 13.5640677,64.775153 12.4259511,64.775153 L12.4259511,64.775153 L0,64.7398149 L0,103.101319 C0,125.257018 17.290816,143.702214 39.1250243,144.996636 L39.1250243,144.996636 C40.1970316,145.060769 41.0953399,144.199565 41.0992287,143.11848 L41.0992287,143.11848 L41.1044138,143.11848 L41.1044138,117.938099 L41.7136561,118.135731 C71.2969084,127.712364 103.549161,112.89129 115.582345,83.5606416 L115.582345,83.5606416 C118.108756,77.4013363 119.548901,71.0627227 120,64.7594472 L120,64.7594472 L100.859421,64.7594472 L98.1631992,72.2694544 C97.8676518,73.0900843 97.2234105,73.7628176 96.3562123,74.0350521 L96.3562123,74.0350521 C94.8823644,74.5023007 93.3229633,73.6345533 92.8744572,72.097999 L92.8744572,72.097999 L86.3620455,49.8703147 L73.8181347,111.695029 L73.8155422,111.695029 C73.5770303,112.876893 72.6450191,113.827096 71.4304232,113.986772 L71.4304232,113.986772 C69.9008361,114.187022 68.5034675,113.060128 68.311621,111.467294 L68.311621,111.467294 L58.0309806,27 L51.1193208,59.0124201 Z" id="path-2"></path>
    </defs>
    <g id="pulse-icon" stroke="none" stroke-width="1" fill="none" fill-rule="evenodd">
        <g id="icon">
            <mask id="mask-3" fill="white">
                <use xlink:href="#path-2"></use>
            </mask>
            <use id="icon-gradient" fill="url(#linearGradient-1)" xlink:href="#path-2"></use>
            <path d="M83.6268993,4.6012795 C106.398623,14.0658703 120.418922,35.9586324 121,59.2611259 L99.6359212,59.2611259 L99.6359212,59.2716072 C98.4959639,59.2716072 97.4212963,59.9948151 97.000831,61.1660975 L96.5007123,62.5470054 L89.2183048,37.8505025 C88.9702042,36.7932039 88.1540836,35.9232581 87.0546059,35.6861193 C85.5320513,35.3585795 84.0395299,36.3700224 83.723528,37.9461441 L72.2795584,94 L62.019943,10.2323442 C61.9233143,8.99555382 61.0627968,7.91336223 59.831434,7.62643734 C58.3141026,7.27400449 56.8072175,8.25924429 56.4677113,9.82881514 L47.6536087,50.3913474 L44.775641,44.5558978 C44.4622507,43.8929572 43.9085945,43.3505512 43.1851852,43.0832787 C41.7161681,42.5408728 40.1009022,43.332209 39.578585,44.8506837 L32.9281814,64.089063 L24.3425926,40.8415962 L24.3347578,40.8455266 C24.0853514,40.1629336 23.5878443,39.5772924 22.8983856,39.244512 C21.4907407,38.5632291 19.8167142,39.1921056 19.1585945,40.6476926 L10.7140313,59.2938799 L0,59.2637462 L0.0274216524,58.4619287 C1.21047009,25.8690956 27.9322175,0 60.4921652,0 C68.6768756,0 76.4907407,1.63638898 83.6268993,4.6012795" id="icon-white" fill="#E6E6E6"></path>
        </g>
    </g>
</svg>
