<svg viewBox="0 0 341 94"><path d="M24.03 61.3301598L20.27 92.0501598 0 92.0501598 11.14.890159806 41.3.890159806C46.0180603.79259101 50.7202635 1.46819492 55.22 2.89015981 58.7422741 4.00317882 61.9850976 5.85816933 64.73 8.33015981 67.1780839 10.5908011 69.0530642 13.4015576 70.2 16.5301598 71.3905561 19.7840507 71.9866964 23.2254063 71.96 26.6901598 72.0073824 31.3885144 71.2323642 36.0589298 69.67 40.4901598 68.201867 44.6406271 65.8080376 48.4023591 62.67 51.4901598 59.2772488 54.740136 55.2209672 57.21689 50.78 58.7501598 45.3093288 60.6084937 39.5564735 61.4984943 33.78 61.3801598L24.03 61.3301598zM29.66 16.0901598L25.97 46.0001598 35.79 46.0001598C38.3022512 46.0747247 40.8032892 45.635767 43.14 44.7101598 45.0267569 43.9301903 46.6850525 42.6847484 47.96 41.0901598 49.2328563 39.4326966 50.1394925 37.5239887 50.62 35.4901598 51.1794495 33.1519723 51.4514601 30.7542488 51.43 28.3501598 51.447493 26.6761283 51.2045917 25.0095555 50.71 23.4101598 50.2632616 21.9697739 49.5053804 20.6451886 48.49 19.5301598 47.4378472 18.4114593 46.145332 17.5463632 44.71 17.0001598 42.9806201 16.3567625 41.1447041 16.0479485 39.3 16.0901598L29.66 16.0901598zM109.87 76.0301598C112.283876 76.0695196 114.675868 75.5672013 116.87 74.5601598 118.975243 73.5619565 120.848626 72.1347794 122.37 70.3701598 124.044272 68.4049409 125.379234 66.1743709 126.32 63.7701598 127.41155 60.9776994 128.124543 58.0517373 128.44 55.0701598L135.03.890159806 155.47.890159806 148.84 55.0801598C148.201317 60.3839208 146.712234 65.5501282 144.43 70.3801598 142.300059 74.8855423 139.349772 78.9549047 135.73 82.3801598 132.130176 85.7671026 127.913967 88.4319366 123.31 90.2301598 118.367864 92.1532062 113.102752 93.1104992 107.8 93.0501598 103.158509 93.1302518 98.5428321 92.3434502 94.19 90.7301598 90.3940419 89.3145475 86.9536482 87.0858003 84.11 84.2001598 81.3396779 81.3120856 79.2189333 77.8650232 77.89 74.0901598 76.4301346 69.9307631 75.7092661 65.548018 75.76 61.1401598 75.7660634 59.1110772 75.8929547 57.0841562 76.14 55.0701598L82.64.880159806 103.04.880159806 96.41 55.0701598C96.32 55.8201598 96.26 56.5601598 96.22 57.2901598 96.18 58.0201598 96.16 58.7401598 96.16 59.4501598 96.16 64.6168265 97.3366667 68.6734931 99.69 71.6201598 102.043333 74.5668265 105.436667 76.0368265 109.87 76.0301598zM177.2 75.7801598L207.86 75.7801598 205.86 92.0501598 154.86 92.0501598 166.06.890159806 186.47.890159806zM269.55 19.1501598C268.983556 20.0171471 268.249092 20.7618121 267.39 21.3401598 266.607255 21.814309 265.704849 22.0537934 264.79 22.0301598 263.758083 22.0090166 262.755697 21.681849 261.91 21.0901598 260.91 20.4701598 259.91 19.7801598 258.69 19.0301598 257.386818 18.221018 256.01484 17.5283367 254.59 16.9601598 252.852863 16.3049855 251.006132 15.9892758 249.15 16.0301598 247.448443 16.0009114 245.755295 16.2752014 244.15 16.8401598 242.803869 17.3200002 241.57869 18.0878698 240.56 19.0901598 239.603208 20.0466948 238.866139 21.2000709 238.4 22.4701598 237.907011 23.8356332 237.663144 25.2785154 237.68 26.7301598 237.633681 28.248853 238.13003 29.7343554 239.08 30.9201598 240.134491 32.1467102 241.409924 33.1643433 242.84 33.9201598 244.5409 34.837097 246.309381 35.6227174 248.13 36.2701598 250.09 36.9834931 252.09 37.7534931 254.13 38.5801598 256.206395 39.4240842 258.233013 40.3856428 260.2 41.4601598 262.172941 42.533849 263.967571 43.9068084 265.52 45.5301598 267.139738 47.2301741 268.416388 49.2266363 269.28 51.4101598 270.271446 54.0483997 270.746728 56.8525684 270.68 59.6701598 270.709297 64.0972729 269.90531 68.4903685 268.31 72.6201598 266.769461 76.5704111 264.442392 80.166481 261.47 83.1901598 258.393398 86.2951545 254.719457 88.7444487 250.67 90.3901598 246.131422 92.2199005 241.27297 93.124273 236.38 93.0501598 233.715723 93.0480419 231.059759 92.7529348 228.46 92.1701598 225.841177 91.6014181 223.285303 90.7740252 220.83 89.7001598 218.444877 88.672582 216.16994 87.4061219 214.04 85.9201598 212.048933 84.5480851 210.258437 82.905675 208.72 81.0401598L215.98 71.5301598C216.550777 70.7928732 217.278328 70.1917038 218.11 69.7701598 218.913386 69.3284119 219.813243 69.0914266 220.73 69.0801598 221.970912 69.104489 223.169286 69.5367471 224.14 70.3101598L227.8 73.0001598C229.263057 74.0503307 230.827515 74.9514854 232.47 75.6901598 234.534373 76.5591316 236.761133 76.9751573 239 76.9101598 242.8 76.9101598 245.73 75.9101598 247.79 73.8101598 249.85 71.7101598 250.89 68.6901598 250.89 64.6401598 250.956983 62.9817997 250.459948 61.3496924 249.48 60.0101598 248.479689 58.7412224 247.222133 57.6983707 245.79 56.9501598 244.123711 56.0475967 242.375962 55.3043013 240.57 54.7301598 238.57 54.0801598 236.57 53.3801598 234.57 52.6301598 232.516352 51.8698122 230.512418 50.9814013 228.57 49.9701598 224.440125 47.8446649 221.257302 44.2479321 219.65 39.8901598 218.636201 37.0494174 218.158115 34.0452718 218.24 31.0301598 218.220594 22.9554549 221.390453 15.1997226 227.06 9.45015981 230.015462 6.49497477 233.526132 4.15339511 237.39 2.56015981 244.124938-.0905181437 251.491341-.699168071 258.57.810159806 260.923376 1.32720557 263.218398 2.08104482 265.42 3.06015981 267.477895 3.98245516 269.42937 5.12584545 271.24 6.47015981 272.899254 7.70218135 274.391703 9.14421015 275.68 10.7601598L269.55 19.1501598zM338.25 16.5901598L304.52 16.5901598 301.77 38.5901598 327.61 38.5901598 325.61 53.7401598 299.89 53.7401598 297.14 76.3201598 331.14 76.3201598 329.14 92.0301598 274.68 92.0301598 285.94.890159806 340.25.890159806z"/></svg>