<?xml version="1.0" encoding="UTF-8"?>
<svg width="392px" height="111px" viewBox="0 0 392 111" version="1.1" xmlns="http://www.w3.org/2000/svg" xmlns:xlink="http://www.w3.org/1999/xlink">
    <!-- Generator: Sketch 63.1 (92452) - https://sketch.com -->
    <title>pulse-logo</title>
    <desc>Created with Sketch.</desc>
    <defs>
        <linearGradient x1="50.0054013%" y1="99.9975452%" x2="50.0054013%" y2="-0.0554863751%" id="linearGradient-1">
            <stop stop-color="#00C0FF" offset="0%"></stop>
            <stop stop-color="#005696" offset="100%"></stop>
        </linearGradient>
    </defs>
    <g id="pulse-logo" stroke="none" stroke-width="1" fill="none" fill-rule="evenodd">
        <path d="M92.57,49.69 C91.541367,63.8694292 84.0623377,76.7924943 72.280368,84.7485918 C60.4983982,92.7046892 45.7168671,94.8136767 32.18,90.47 L31.71,90.32 L31.71,109.56 L31.71,109.56 C31.7078665,109.957096 31.542969,110.33594 31.2537997,110.6081 C30.9646305,110.880259 30.5764962,111.021915 30.18,111 C13.2621814,109.946628 0.0620518135,95.9504669 -7.10542736e-15,79 L-7.10542736e-15,49.68 L9.59,49.68 C10.4636127,49.6895056 11.2552831,49.1670032 11.59,48.36 L16.47,37.63 L23.32,56.11 C23.5112839,56.6567801 23.9160594,57.1026569 24.4418507,57.3457647 C24.9676421,57.5888725 25.5695278,57.6084412 26.11,57.4 C26.7049469,57.1632311 27.1657126,56.6768673 27.37,56.07 L27.37,56.07 L32.75,40.57 L35.37,46 C35.6157834,46.5254374 36.0643429,46.9285868 36.6129358,47.1171067 C37.1615288,47.3056266 37.7631507,47.2633643 38.28,47 C38.9031963,46.6614146 39.3323266,46.0510137 39.44,45.35 L44.77,20.89 L52.7,85.38 C52.7973662,86.4495288 53.6723645,87.2812413 54.745454,87.3242661 C55.8185434,87.3672909 56.7573199,86.6083006 56.94,85.55 L56.94,85.55 L66.61,38.31 L71.61,55.31 C71.7656441,55.8639151 72.1368127,56.3323342 72.6404814,56.6104796 C73.1441501,56.888625 73.7382894,56.9532864 74.29,56.79 C74.9418457,56.5832615 75.4597024,56.0838996 75.69,55.44 L75.69,55.44 L77.77,49.7 L92.57,49.69 Z" id="Path" fill="url(#linearGradient-1)"></path>
        <path d="M64.06,3.51 C81.0010253,10.5454437 92.2148467,26.8920765 92.68,45.23 L76.32,45.23 C75.4144838,45.2438758 74.6147475,45.8236846 74.32,46.68 L73.94,47.73 L68.34,28.89 C68.1516211,28.0656438 67.5054794,27.4233945 66.68,27.24 C66.1074787,27.1265091 65.5133973,27.2495423 65.0330411,27.5810823 C64.5526849,27.9126223 64.2269452,28.4244459 64.13,29 L55.37,71.75 L47.51,7.81 C47.4491603,6.8470626 46.7679829,6.03613716 45.83,5.81 C45.2644525,5.68626704 44.6729042,5.79583705 44.1891925,6.11391989 C43.7054807,6.43200273 43.3704857,6.93171602 43.26,7.5 L36.51,38.5 L34.3,34 C34.057718,33.4775824 33.619418,33.071616 33.08,32.87 C32.5352112,32.6766526 31.935514,32.7108357 31.4162242,32.9648361 C30.8969344,33.2188365 30.5018075,33.6712522 30.32,34.22 L25.23,48.92 L18.66,31.17 L18.66,31.17 C18.4505933,30.6540992 18.054173,30.2362507 17.55,30 C17.0391071,29.7471021 16.4478925,29.7106118 15.9097776,29.8987639 C15.3716626,30.0869159 14.9319965,30.4838541 14.69,31 L8.22,45.26 L0,45.23 L0,44.62 C0.576661408,29.4719168 8.52123292,15.5621344 21.2756818,7.36939391 C34.0301306,-0.823346602 49.9838568,-2.26448636 64,3.51 L64.06,3.51 Z" id="Path" fill="#222222"></path>
        <path d="M111.73,54.52 C111.73,56.1768542 113.073146,57.52 114.73,57.52 C115.51494,57.5368982 116.270179,57.2199041 116.807917,56.6478424 C117.345655,56.0757807 117.615373,55.3023958 117.55,54.52 L117.55,48.7 L124.9,48.7 C130.63,48.7 135.78,44.83 135.78,37.87 C135.78,30.52 130.63,26.68 124.9,26.68 L114.72,26.68 C113.063146,26.68 111.72,28.0231458 111.72,29.68 L111.72,54.48 L111.73,54.52 Z M124.89,32.23 C127.927566,32.23 130.39,34.6924339 130.39,37.73 C130.39,40.7675661 127.927566,43.23 124.89,43.23 L117.54,43.23 L117.54,32.23 L124.89,32.23 Z M196.62,45.93 C196.62,55.13 181.62,54.61 181.62,45.93 L181.62,30 C181.683096,28.9287551 181.147434,27.9107482 180.228801,27.356077 C179.310168,26.8014057 178.159832,26.8014057 177.241199,27.356077 C176.322566,27.9107482 175.786904,28.9287551 175.85,30 L175.85,45.93 C175.85,62.4 202.41,62.4 202.41,45.93 L202.41,30 C202.473096,28.9287551 201.937434,27.9107482 201.018801,27.356077 C200.100168,26.8014057 198.949832,26.8014057 198.031199,27.356077 C197.112566,27.9107482 196.576904,28.9287551 196.64,30 L196.64,45.93 L196.62,45.93 Z M243.94,54.87 C243.931138,55.6001471 244.222819,56.3018316 244.746658,56.8105418 C245.270497,57.3192519 245.980426,57.5902501 246.71,57.56 L261.29,57.56 C265.69,57.56 265.61,51.79 261.29,51.79 L249.29,51.79 L249.29,29.72 C249.290646,28.2705642 248.13879,27.0832666 246.69,27.039825 C245.188217,27.023198 243.952794,28.2184806 243.92,29.72 L243.92,54.87 L243.94,54.87 Z M321.52,48.79 C320.86,55.05 311.52,53.2 307.95,50.73 C306.45,49.5 305.18,49.89 304.03,51.04 C303.104929,52.4274414 303.372059,54.2887317 304.65,55.36 C310.73,60.36 326.93,60.11 327.24,48.93 C327.55,37.21 308.39,41.35 309.58,34.13 C310.51,29.55 317.9,30.52 321.16,32.59 C323.81,34.52 326.98,30.69 323.98,28.27 C317.9,23.6 304.98,25.14 303.98,33.69 C302.61,46.19 320.93,42.27 321.51,48.79 L321.52,48.79 Z M387,57.56 C388.071245,57.6230963 389.089252,57.0874339 389.643923,56.1688009 C390.198594,55.2501679 390.198594,54.0998321 389.643923,53.1811991 C389.089252,52.2625661 388.071245,51.7269037 387,51.79 L373.55,51.79 L373.55,45.18 L384.65,45.18 C385.721245,45.2430963 386.739252,44.7074339 387.293923,43.7888009 C387.848594,42.8701679 387.848594,41.7198321 387.293923,40.8011991 C386.739252,39.8825661 385.721245,39.3469037 384.65,39.41 L373.55,39.41 L373.55,32.81 L386.24,32.81 C387.303959,32.8728857 388.315144,32.3409893 388.866111,31.4286308 C389.417079,30.5162723 389.417079,29.3737277 388.866111,28.4613692 C388.315144,27.5490107 387.303959,27.0171143 386.24,27.08 L370.42,27.08 C369.691004,27.0634254 368.986946,27.3457239 368.471335,27.8613351 C367.955724,28.3769462 367.673425,29.0810042 367.69,29.81 L367.69,54.81 C367.679102,55.5373272 367.963225,56.2380634 368.477581,56.7524192 C368.991937,57.2667749 369.692673,57.5508981 370.42,57.54 L387,57.56 Z" id="Shape" fill="#222222"></path>
    </g>
</svg>